<mxfile host="app.diagrams.net" agent="Mozilla/5.0 (Macintosh; Intel Mac OS X 10_15_7) AppleWebKit/537.36 (KHTML, like Gecko) Chrome/127.0.0.0 Safari/537.36" version="24.7.7">
  <diagram name="ページ1" id="ecawvKmMR6SEDkDyPHgt">
    <mxGraphModel dx="774" dy="544" grid="1" gridSize="10" guides="1" tooltips="1" connect="1" arrows="1" fold="1" page="1" pageScale="1" pageWidth="827" pageHeight="1169" math="0" shadow="0">
      <root>
        <mxCell id="0" />
        <mxCell id="1" parent="0" />
        <mxCell id="qUe_HoAB_SXOXVvPh3Tw-70" value="users" style="shape=table;startSize=30;container=1;collapsible=1;childLayout=tableLayout;fixedRows=1;rowLines=0;fontStyle=1;align=center;resizeLast=1;html=1;" vertex="1" parent="1">
          <mxGeometry x="20" y="80" width="180" height="270" as="geometry" />
        </mxCell>
        <mxCell id="qUe_HoAB_SXOXVvPh3Tw-71" value="" style="shape=tableRow;horizontal=0;startSize=0;swimlaneHead=0;swimlaneBody=0;fillColor=none;collapsible=0;dropTarget=0;points=[[0,0.5],[1,0.5]];portConstraint=eastwest;top=0;left=0;right=0;bottom=1;" vertex="1" parent="qUe_HoAB_SXOXVvPh3Tw-70">
          <mxGeometry y="30" width="180" height="30" as="geometry" />
        </mxCell>
        <mxCell id="qUe_HoAB_SXOXVvPh3Tw-72" value="PK" style="shape=partialRectangle;connectable=0;fillColor=none;top=0;left=0;bottom=0;right=0;fontStyle=1;overflow=hidden;whiteSpace=wrap;html=1;" vertex="1" parent="qUe_HoAB_SXOXVvPh3Tw-71">
          <mxGeometry width="30" height="30" as="geometry">
            <mxRectangle width="30" height="30" as="alternateBounds" />
          </mxGeometry>
        </mxCell>
        <mxCell id="qUe_HoAB_SXOXVvPh3Tw-73" value="id" style="shape=partialRectangle;connectable=0;fillColor=none;top=0;left=0;bottom=0;right=0;align=left;spacingLeft=6;fontStyle=5;overflow=hidden;whiteSpace=wrap;html=1;" vertex="1" parent="qUe_HoAB_SXOXVvPh3Tw-71">
          <mxGeometry x="30" width="150" height="30" as="geometry">
            <mxRectangle width="150" height="30" as="alternateBounds" />
          </mxGeometry>
        </mxCell>
        <mxCell id="qUe_HoAB_SXOXVvPh3Tw-74" value="" style="shape=tableRow;horizontal=0;startSize=0;swimlaneHead=0;swimlaneBody=0;fillColor=none;collapsible=0;dropTarget=0;points=[[0,0.5],[1,0.5]];portConstraint=eastwest;top=0;left=0;right=0;bottom=0;" vertex="1" parent="qUe_HoAB_SXOXVvPh3Tw-70">
          <mxGeometry y="60" width="180" height="190" as="geometry" />
        </mxCell>
        <mxCell id="qUe_HoAB_SXOXVvPh3Tw-75" value="" style="shape=partialRectangle;connectable=0;fillColor=none;top=0;left=0;bottom=0;right=0;editable=1;overflow=hidden;whiteSpace=wrap;html=1;" vertex="1" parent="qUe_HoAB_SXOXVvPh3Tw-74">
          <mxGeometry width="30" height="190" as="geometry">
            <mxRectangle width="30" height="190" as="alternateBounds" />
          </mxGeometry>
        </mxCell>
        <mxCell id="qUe_HoAB_SXOXVvPh3Tw-76" value="・id&lt;div style=&quot;line-height: 160%;&quot;&gt;・user_name&lt;/div&gt;&lt;div style=&quot;line-height: 160%;&quot;&gt;・email&lt;/div&gt;&lt;div style=&quot;line-height: 160%;&quot;&gt;・profile_image&lt;/div&gt;&lt;div style=&quot;line-height: 160%;&quot;&gt;・bio&lt;/div&gt;&lt;div style=&quot;line-height: 160%;&quot;&gt;・password_digest&lt;/div&gt;&lt;div style=&quot;line-height: 160%;&quot;&gt;・created_at&lt;/div&gt;&lt;div style=&quot;line-height: 160%;&quot;&gt;・update_at&lt;/div&gt;" style="shape=partialRectangle;connectable=0;fillColor=none;top=0;left=0;bottom=0;right=0;align=left;spacingLeft=6;overflow=hidden;whiteSpace=wrap;html=1;" vertex="1" parent="qUe_HoAB_SXOXVvPh3Tw-74">
          <mxGeometry x="30" width="150" height="190" as="geometry">
            <mxRectangle width="150" height="190" as="alternateBounds" />
          </mxGeometry>
        </mxCell>
        <mxCell id="qUe_HoAB_SXOXVvPh3Tw-80" value="" style="shape=tableRow;horizontal=0;startSize=0;swimlaneHead=0;swimlaneBody=0;fillColor=none;collapsible=0;dropTarget=0;points=[[0,0.5],[1,0.5]];portConstraint=eastwest;top=0;left=0;right=0;bottom=0;" vertex="1" parent="qUe_HoAB_SXOXVvPh3Tw-70">
          <mxGeometry y="250" width="180" height="20" as="geometry" />
        </mxCell>
        <mxCell id="qUe_HoAB_SXOXVvPh3Tw-81" value="" style="shape=partialRectangle;connectable=0;fillColor=none;top=0;left=0;bottom=0;right=0;editable=1;overflow=hidden;whiteSpace=wrap;html=1;" vertex="1" parent="qUe_HoAB_SXOXVvPh3Tw-80">
          <mxGeometry width="30" height="20" as="geometry">
            <mxRectangle width="30" height="20" as="alternateBounds" />
          </mxGeometry>
        </mxCell>
        <mxCell id="qUe_HoAB_SXOXVvPh3Tw-82" value="" style="shape=partialRectangle;connectable=0;fillColor=none;top=0;left=0;bottom=0;right=0;align=left;spacingLeft=6;overflow=hidden;whiteSpace=wrap;html=1;" vertex="1" parent="qUe_HoAB_SXOXVvPh3Tw-80">
          <mxGeometry x="30" width="150" height="20" as="geometry">
            <mxRectangle width="150" height="20" as="alternateBounds" />
          </mxGeometry>
        </mxCell>
        <mxCell id="qUe_HoAB_SXOXVvPh3Tw-86" value="&lt;div style=&quot;text-align: start;&quot;&gt;&lt;span style=&quot;background-color: initial; text-wrap: wrap;&quot;&gt;&lt;font face=&quot;-webkit-standard&quot;&gt;posts&lt;/font&gt;&lt;/span&gt;&lt;/div&gt;" style="shape=table;startSize=30;container=1;collapsible=1;childLayout=tableLayout;fixedRows=1;rowLines=0;fontStyle=1;align=center;resizeLast=1;html=1;" vertex="1" parent="1">
          <mxGeometry x="310" y="40" width="180" height="270" as="geometry" />
        </mxCell>
        <mxCell id="qUe_HoAB_SXOXVvPh3Tw-87" value="" style="shape=tableRow;horizontal=0;startSize=0;swimlaneHead=0;swimlaneBody=0;fillColor=none;collapsible=0;dropTarget=0;points=[[0,0.5],[1,0.5]];portConstraint=eastwest;top=0;left=0;right=0;bottom=1;" vertex="1" parent="qUe_HoAB_SXOXVvPh3Tw-86">
          <mxGeometry y="30" width="180" height="30" as="geometry" />
        </mxCell>
        <mxCell id="qUe_HoAB_SXOXVvPh3Tw-88" value="PK" style="shape=partialRectangle;connectable=0;fillColor=none;top=0;left=0;bottom=0;right=0;fontStyle=1;overflow=hidden;whiteSpace=wrap;html=1;" vertex="1" parent="qUe_HoAB_SXOXVvPh3Tw-87">
          <mxGeometry width="30" height="30" as="geometry">
            <mxRectangle width="30" height="30" as="alternateBounds" />
          </mxGeometry>
        </mxCell>
        <mxCell id="qUe_HoAB_SXOXVvPh3Tw-89" value="id" style="shape=partialRectangle;connectable=0;fillColor=none;top=0;left=0;bottom=0;right=0;align=left;spacingLeft=6;fontStyle=5;overflow=hidden;whiteSpace=wrap;html=1;" vertex="1" parent="qUe_HoAB_SXOXVvPh3Tw-87">
          <mxGeometry x="30" width="150" height="30" as="geometry">
            <mxRectangle width="150" height="30" as="alternateBounds" />
          </mxGeometry>
        </mxCell>
        <mxCell id="qUe_HoAB_SXOXVvPh3Tw-90" value="" style="shape=tableRow;horizontal=0;startSize=0;swimlaneHead=0;swimlaneBody=0;fillColor=none;collapsible=0;dropTarget=0;points=[[0,0.5],[1,0.5]];portConstraint=eastwest;top=0;left=0;right=0;bottom=0;" vertex="1" parent="qUe_HoAB_SXOXVvPh3Tw-86">
          <mxGeometry y="60" width="180" height="210" as="geometry" />
        </mxCell>
        <mxCell id="qUe_HoAB_SXOXVvPh3Tw-91" value="" style="shape=partialRectangle;connectable=0;fillColor=none;top=0;left=0;bottom=0;right=0;editable=1;overflow=hidden;whiteSpace=wrap;html=1;" vertex="1" parent="qUe_HoAB_SXOXVvPh3Tw-90">
          <mxGeometry width="30" height="210" as="geometry">
            <mxRectangle width="30" height="210" as="alternateBounds" />
          </mxGeometry>
        </mxCell>
        <mxCell id="qUe_HoAB_SXOXVvPh3Tw-92" value="・content&lt;div style=&quot;line-height: 150%;&quot;&gt;・user_id&lt;/div&gt;&lt;div style=&quot;line-height: 150%;&quot;&gt;・created_at&lt;/div&gt;&lt;div style=&quot;line-height: 150%;&quot;&gt;・update_at&lt;/div&gt;&lt;div style=&quot;line-height: 150%;&quot;&gt;・image_url&lt;/div&gt;&lt;div style=&quot;line-height: 150%;&quot;&gt;・visibility&lt;/div&gt;&lt;div style=&quot;line-height: 150%;&quot;&gt;・status&lt;/div&gt;&lt;div style=&quot;line-height: 150%;&quot;&gt;・replay_to_id&lt;/div&gt;&lt;div style=&quot;line-height: 150%;&quot;&gt;・retweet_count&lt;/div&gt;&lt;div style=&quot;line-height: 150%;&quot;&gt;&lt;br&gt;&lt;/div&gt;" style="shape=partialRectangle;connectable=0;fillColor=none;top=0;left=0;bottom=0;right=0;align=left;spacingLeft=6;overflow=hidden;whiteSpace=wrap;html=1;" vertex="1" parent="qUe_HoAB_SXOXVvPh3Tw-90">
          <mxGeometry x="30" width="150" height="210" as="geometry">
            <mxRectangle width="150" height="210" as="alternateBounds" />
          </mxGeometry>
        </mxCell>
        <mxCell id="qUe_HoAB_SXOXVvPh3Tw-99" value="" style="endArrow=classic;html=1;rounded=0;" edge="1" parent="1">
          <mxGeometry relative="1" as="geometry">
            <mxPoint x="200" y="124.5" as="sourcePoint" />
            <mxPoint x="300" y="124.5" as="targetPoint" />
            <Array as="points">
              <mxPoint x="250" y="124.5" />
            </Array>
          </mxGeometry>
        </mxCell>
        <mxCell id="qUe_HoAB_SXOXVvPh3Tw-100" value="Label" style="edgeLabel;resizable=0;html=1;;align=center;verticalAlign=middle;" connectable="0" vertex="1" parent="qUe_HoAB_SXOXVvPh3Tw-99">
          <mxGeometry relative="1" as="geometry" />
        </mxCell>
        <mxCell id="qUe_HoAB_SXOXVvPh3Tw-101" value="&lt;font style=&quot;font-size: 12px;&quot;&gt;FK1&lt;/font&gt;" style="text;strokeColor=none;fillColor=none;html=1;fontSize=24;fontStyle=1;verticalAlign=middle;align=center;" vertex="1" parent="1">
          <mxGeometry x="300" y="110" width="50" height="30" as="geometry" />
        </mxCell>
      </root>
    </mxGraphModel>
  </diagram>
</mxfile>
